<svg id="svg" version="1.1" xmlns="http://www.w3.org/2000/svg" xmlns:xlink="http://www.w3.org/1999/xlink" width="400" height="400" viewBox="0, 0, 400,400"><g id="svgg"><path id="path0" d="M193.417 12.501 C 191.950 12.579,189.662 12.683,188.332 12.733 C 187.002 12.783,184.609 12.973,183.014 13.156 C 181.419 13.338,180.063 13.456,180.001 13.417 C 179.938 13.379,178.699 13.527,177.247 13.748 C 175.794 13.968,174.562 14.122,174.508 14.088 C 174.454 14.055,173.443 14.206,172.262 14.424 C 171.081 14.642,170.066 14.791,170.007 14.754 C 169.948 14.718,169.240 14.835,168.435 15.015 C 167.629 15.194,166.655 15.370,166.271 15.406 C 165.887 15.442,165.095 15.596,164.512 15.747 C 163.928 15.898,163.217 16.040,162.933 16.062 C 162.357 16.106,159.731 16.690,157.857 17.191 C 157.182 17.371,156.595 17.483,156.551 17.440 C 156.508 17.396,156.051 17.506,155.536 17.683 C 155.021 17.860,154.359 18.035,154.065 18.071 C 153.771 18.108,153.017 18.289,152.390 18.474 C 151.763 18.659,150.650 18.976,149.917 19.178 C 147.662 19.801,146.290 20.196,145.333 20.500 C 144.829 20.660,143.404 21.111,142.167 21.503 C 140.929 21.895,139.542 22.350,139.083 22.513 C 138.625 22.677,137.800 22.971,137.250 23.167 C 133.146 24.629,128.307 26.532,125.583 27.754 C 125.308 27.877,124.633 28.177,124.083 28.419 C 123.533 28.661,122.708 29.036,122.250 29.252 C 121.792 29.467,120.742 29.957,119.917 30.339 C 116.752 31.805,111.860 34.336,108.511 36.238 C 107.288 36.932,106.259 37.500,106.224 37.500 C 106.188 37.500,105.880 37.677,105.538 37.893 C 105.196 38.109,103.829 38.947,102.500 39.755 C 97.692 42.677,97.331 42.940,97.418 43.457 C 97.460 43.710,97.572 44.629,97.667 45.500 C 102.522 90.088,135.670 136.704,187.083 171.244 C 196.536 177.595,203.280 181.636,217.833 189.674 C 272.089 219.639,308.273 259.920,320.230 303.667 C 321.895 309.761,322.947 315.724,323.506 322.250 C 323.688 324.380,323.503 334.463,323.183 339.833 C 323.115 340.979,323.065 341.929,323.072 341.945 C 323.094 341.995,325.198 340.172,326.831 338.687 C 328.902 336.805,336.853 328.851,338.683 326.831 C 339.470 325.961,340.733 324.537,341.489 323.667 C 342.245 322.796,343.068 321.858,343.318 321.583 C 345.066 319.661,352.667 309.844,352.667 309.508 C 352.667 309.427,352.728 309.336,352.803 309.306 C 352.877 309.275,353.252 308.800,353.634 308.250 C 354.816 306.552,358.000 301.809,358.000 301.748 C 358.000 301.716,358.450 301.011,359.000 300.180 C 359.550 299.350,360.000 298.637,360.000 298.597 C 360.000 298.557,360.281 298.085,360.625 297.549 C 361.495 296.193,363.069 293.513,363.396 292.833 C 363.462 292.696,363.697 292.283,363.918 291.917 C 364.139 291.550,364.461 290.987,364.633 290.667 C 364.806 290.346,365.295 289.446,365.721 288.667 C 367.874 284.725,371.731 276.554,373.706 271.750 C 373.895 271.292,374.143 270.692,374.257 270.417 C 374.372 270.142,374.666 269.392,374.910 268.750 C 375.154 268.108,375.493 267.246,375.663 266.833 C 375.833 266.421,376.133 265.633,376.331 265.083 C 376.528 264.533,376.829 263.708,377.000 263.250 C 377.936 260.734,379.922 254.438,380.995 250.583 C 381.199 249.850,381.508 248.760,381.683 248.162 C 381.857 247.564,382.000 246.975,382.000 246.855 C 382.000 246.734,382.140 246.136,382.310 245.526 C 382.632 244.375,383.060 242.549,383.645 239.833 C 383.832 238.963,384.115 237.650,384.274 236.917 C 384.432 236.183,384.610 235.208,384.669 234.750 C 384.728 234.292,384.900 233.279,385.051 232.500 C 385.953 227.844,387.067 218.862,387.343 214.017 C 387.424 212.587,387.568 210.217,387.662 208.750 C 387.882 205.305,387.881 194.850,387.661 191.417 C 387.566 189.950,387.422 187.550,387.340 186.083 C 387.008 180.164,385.704 170.446,384.319 163.583 C 383.411 159.081,382.802 156.364,382.314 154.641 C 382.141 154.031,382.000 153.414,382.000 153.269 C 382.000 153.125,381.857 152.537,381.683 151.962 C 381.509 151.387,381.200 150.317,380.998 149.583 C 380.031 146.084,379.738 145.132,378.260 140.667 C 377.309 137.793,376.790 136.313,375.897 133.917 C 375.760 133.550,375.510 132.875,375.340 132.417 C 375.027 131.569,373.986 128.992,373.591 128.083 C 371.050 122.247,369.413 118.700,367.781 115.500 C 365.521 111.066,365.147 110.355,364.583 109.417 C 364.363 109.050,364.128 108.638,364.062 108.500 C 363.968 108.303,362.445 105.636,361.417 103.867 C 361.325 103.709,360.725 102.732,360.083 101.696 C 359.442 100.660,358.778 99.573,358.607 99.281 C 358.437 98.989,358.231 98.725,358.149 98.694 C 358.067 98.664,358.000 98.566,358.000 98.477 C 358.000 98.327,356.150 95.494,354.821 93.607 C 354.507 93.162,354.137 92.628,354.000 92.421 C 353.577 91.785,351.740 89.251,350.250 87.249 C 349.151 85.773,343.958 79.270,343.187 78.406 C 342.855 78.034,342.171 77.255,341.667 76.675 C 336.442 70.668,330.390 64.550,325.006 59.833 C 324.326 59.237,323.616 58.599,323.427 58.414 C 323.238 58.229,322.408 57.517,321.583 56.831 C 320.758 56.145,320.046 55.542,320.000 55.491 C 319.500 54.931,311.195 48.562,308.917 46.991 C 308.458 46.675,308.046 46.377,308.000 46.328 C 307.927 46.249,306.670 45.387,305.581 44.667 C 305.373 44.529,304.853 44.173,304.426 43.875 C 303.999 43.577,303.613 43.333,303.568 43.333 C 303.523 43.333,303.093 43.052,302.612 42.708 C 301.627 42.004,301.297 41.790,300.588 41.395 C 300.315 41.243,299.490 40.732,298.754 40.258 C 297.049 39.160,295.740 38.362,295.000 37.968 C 294.679 37.797,294.192 37.520,293.917 37.352 C 293.371 37.020,292.458 36.495,291.417 35.915 C 287.920 33.970,281.072 30.505,278.417 29.337 C 277.317 28.854,276.229 28.361,276.000 28.243 C 275.771 28.125,274.833 27.716,273.917 27.335 C 271.310 26.252,270.292 25.823,269.725 25.569 C 269.436 25.439,269.095 25.333,268.966 25.333 C 268.838 25.333,268.662 25.268,268.575 25.189 C 268.488 25.109,268.079 24.927,267.667 24.784 C 267.254 24.641,266.317 24.287,265.583 23.998 C 264.850 23.709,264.025 23.410,263.750 23.332 C 263.475 23.255,262.162 22.806,260.833 22.335 C 259.504 21.865,258.287 21.451,258.129 21.417 C 257.970 21.382,257.408 21.208,256.879 21.030 C 255.132 20.441,251.888 19.463,251.417 19.384 C 251.233 19.353,250.633 19.189,250.083 19.019 C 249.533 18.849,248.483 18.556,247.750 18.368 C 247.017 18.179,245.943 17.902,245.364 17.751 C 244.172 17.440,243.794 17.360,243.083 17.264 C 242.808 17.227,242.396 17.124,242.167 17.035 C 241.938 16.946,241.693 16.869,241.624 16.863 C 241.554 16.858,241.141 16.796,240.707 16.726 C 240.272 16.657,239.879 16.595,239.833 16.589 C 239.787 16.583,239.656 16.519,239.542 16.446 C 239.427 16.373,239.333 16.350,239.333 16.395 C 239.333 16.440,239.090 16.403,238.792 16.312 C 238.494 16.222,237.987 16.112,237.667 16.068 C 237.033 15.982,236.644 15.907,236.000 15.747 C 235.771 15.690,235.471 15.625,235.333 15.603 C 235.196 15.581,234.710 15.501,234.254 15.424 C 233.798 15.347,233.273 15.267,233.087 15.247 C 232.902 15.226,232.750 15.190,232.750 15.167 C 232.750 15.143,232.600 15.107,232.417 15.086 C 232.233 15.064,231.558 14.960,230.917 14.854 C 229.761 14.662,229.208 14.580,227.917 14.410 C 227.550 14.362,227.137 14.281,227.000 14.230 C 226.717 14.126,226.255 14.068,224.583 13.925 C 223.942 13.871,222.967 13.755,222.417 13.668 C 221.867 13.580,220.892 13.465,220.250 13.411 C 218.399 13.254,217.806 13.198,216.917 13.094 C 215.200 12.893,214.362 12.829,212.333 12.746 C 211.188 12.698,209.838 12.636,209.333 12.608 C 206.606 12.452,195.712 12.380,193.417 12.501 M211.833 25.411 C 257.305 28.545,297.978 48.188,329.522 82.249 C 346.412 100.487,360.026 124.376,367.466 148.833 C 369.042 154.011,369.691 156.440,370.675 160.833 C 370.952 162.071,371.289 163.571,371.423 164.167 C 376.349 186.059,376.256 214.314,371.184 237.083 C 370.369 240.744,370.140 241.718,369.590 243.871 C 363.421 267.996,351.382 291.686,335.482 310.991 C 334.868 311.736,334.926 311.856,334.238 308.402 C 331.606 295.193,326.037 280.246,319.130 267.854 C 318.600 266.904,318.167 266.100,318.167 266.069 C 318.167 265.794,312.809 257.132,310.857 254.250 C 289.800 223.161,261.331 199.129,216.333 174.457 C 213.483 172.894,205.964 168.427,202.583 166.287 C 198.932 163.977,198.030 163.389,194.833 161.241 C 180.405 151.546,168.915 142.289,158.020 131.584 C 133.636 107.624,118.451 82.212,111.935 54.458 C 111.787 53.831,111.751 53.825,116.032 55.156 C 131.536 59.978,148.752 66.118,161.833 71.491 C 163.438 72.149,165.387 72.949,166.167 73.268 C 166.946 73.587,169.271 74.578,171.333 75.471 L 175.083 77.094 175.192 81.088 C 175.564 94.737,179.532 110.162,186.662 125.667 C 190.022 132.974,191.088 134.083,194.754 134.083 C 198.503 134.083,200.917 131.664,200.917 127.905 L 200.917 126.226 199.613 123.595 C 195.027 114.341,191.351 103.864,189.345 94.333 C 188.573 90.664,187.611 83.333,187.869 83.076 C 187.961 82.983,195.603 86.725,200.750 89.383 C 218.665 98.635,236.177 109.471,251.000 120.477 C 254.218 122.867,259.333 126.873,259.333 127.005 C 259.333 127.073,259.154 127.757,258.935 128.523 C 256.295 137.760,256.657 151.048,259.852 162.165 C 260.452 164.253,261.105 165.458,262.064 166.243 C 267.073 170.347,273.825 165.878,272.150 159.568 C 270.119 151.914,269.288 144.577,269.822 139.000 C 270.142 135.650,269.981 135.787,271.750 137.360 C 289.182 152.869,304.862 171.907,312.031 186.266 C 314.421 191.054,319.383 192.126,322.667 188.563 C 324.917 186.123,324.895 183.762,322.581 179.262 C 315.321 165.143,300.092 146.333,283.835 131.402 C 282.459 130.138,281.333 129.034,281.333 128.948 C 281.333 128.647,291.971 128.938,294.794 129.317 C 301.254 130.182,306.290 131.462,311.411 133.538 C 316.387 135.556,320.740 132.974,320.747 128.000 C 320.754 123.766,318.259 121.987,308.500 119.268 C 296.447 115.910,281.388 115.253,269.461 117.566 L 268.171 117.816 264.294 114.805 C 250.200 103.860,233.056 92.605,217.454 84.055 C 211.040 80.540,208.000 78.923,204.167 76.986 L 202.083 75.933 202.750 75.816 C 204.025 75.594,209.783 75.333,213.422 75.334 C 228.767 75.336,240.436 78.359,250.323 84.892 C 255.648 88.412,262.197 82.595,259.387 76.842 C 258.187 74.387,251.712 70.534,243.833 67.589 C 228.304 61.782,206.150 61.161,184.721 65.930 L 182.192 66.492 180.887 65.897 C 173.532 62.536,157.941 56.265,147.500 52.466 C 140.700 49.993,122.437 43.833,121.902 43.833 C 120.377 43.833,129.752 39.485,138.256 36.249 C 155.693 29.612,172.685 26.210,193.917 25.102 C 196.525 24.966,208.329 25.170,211.833 25.411 M75.911 59.377 C 67.028 67.076,56.967 78.000,49.579 87.966 C 46.643 91.928,46.687 91.865,44.092 95.736 C 37.968 104.872,33.122 113.633,28.504 123.917 C 28.216 124.558,27.879 125.308,27.755 125.583 C 27.514 126.118,26.333 128.926,25.826 130.167 C 25.658 130.579,25.324 131.442,25.085 132.083 C 24.846 132.725,24.548 133.512,24.422 133.833 C 24.160 134.503,23.682 135.805,23.167 137.250 C 22.971 137.800,22.677 138.625,22.513 139.083 C 22.350 139.542,21.895 140.929,21.503 142.167 C 21.111 143.404,20.659 144.829,20.498 145.333 C 20.215 146.219,19.791 147.694,19.144 150.042 C 18.973 150.660,18.677 151.698,18.486 152.348 C 18.294 152.998,18.108 153.771,18.071 154.065 C 18.035 154.359,17.860 155.021,17.683 155.536 C 17.506 156.051,17.398 156.509,17.442 156.553 C 17.487 156.598,17.370 157.151,17.182 157.782 C 16.994 158.413,16.806 159.197,16.764 159.524 C 16.722 159.852,16.561 160.599,16.407 161.185 C 16.252 161.771,16.099 162.531,16.067 162.874 C 16.036 163.218,15.895 163.942,15.754 164.484 C 15.614 165.026,15.466 165.796,15.425 166.195 C 15.385 166.593,15.203 167.590,15.020 168.410 C 14.837 169.229,14.719 169.950,14.757 170.011 C 14.795 170.073,14.677 170.901,14.496 171.853 C 14.314 172.805,14.130 174.041,14.087 174.601 C 14.044 175.160,13.896 176.323,13.759 177.184 C 13.622 178.045,13.472 179.362,13.425 180.110 C 13.378 180.858,13.224 182.467,13.081 183.685 C 12.939 184.903,12.792 186.804,12.756 187.908 C 12.719 189.013,12.601 191.754,12.493 194.000 C 12.318 197.625,12.370 204.700,12.602 209.083 C 12.636 209.725,12.702 211.188,12.748 212.333 C 12.829 214.360,12.892 215.193,13.094 216.917 C 13.203 217.849,13.268 218.545,13.407 220.250 C 13.459 220.892,13.538 221.604,13.583 221.833 C 13.628 222.063,13.701 222.588,13.745 223.000 C 13.832 223.814,13.943 224.823,14.075 226.000 C 14.121 226.412,14.237 227.125,14.333 227.583 C 14.428 228.042,14.541 228.717,14.584 229.083 C 14.627 229.450,14.749 230.275,14.855 230.917 C 14.960 231.558,15.064 232.233,15.086 232.417 C 15.107 232.600,15.143 232.750,15.167 232.750 C 15.190 232.750,15.226 232.902,15.247 233.087 C 15.267 233.273,15.347 233.798,15.424 234.254 C 15.501 234.710,15.581 235.196,15.603 235.333 C 15.625 235.471,15.690 235.771,15.748 236.000 C 15.806 236.229,15.883 236.604,15.920 236.833 C 16.106 237.994,16.157 238.290,16.246 238.750 C 16.299 239.025,16.390 239.362,16.448 239.500 C 16.506 239.637,16.583 239.975,16.620 240.250 C 16.657 240.525,16.785 241.088,16.905 241.500 C 17.026 241.912,17.134 242.306,17.145 242.375 C 17.157 242.444,17.172 242.519,17.178 242.542 C 17.184 242.565,17.216 242.771,17.248 243.000 C 17.351 243.736,17.463 244.261,17.747 245.351 C 17.900 245.937,18.181 247.017,18.372 247.750 C 18.563 248.483,18.858 249.527,19.027 250.069 C 19.195 250.611,19.333 251.166,19.333 251.302 C 19.333 251.438,19.473 251.969,19.644 252.483 C 19.815 252.996,20.123 253.979,20.329 254.667 C 20.921 256.644,21.359 258.032,21.608 258.717 C 21.734 259.065,22.093 260.115,22.406 261.050 C 23.086 263.085,23.226 263.477,23.958 265.402 C 24.268 266.220,24.637 267.232,24.778 267.652 C 24.918 268.073,25.100 268.488,25.183 268.575 C 25.266 268.662,25.333 268.838,25.333 268.966 C 25.333 269.095,25.439 269.436,25.569 269.725 C 25.698 270.014,26.006 270.737,26.253 271.333 C 27.302 273.862,28.049 275.611,28.247 276.000 C 28.363 276.229,28.854 277.317,29.337 278.417 C 30.505 281.072,33.970 287.920,35.915 291.417 C 36.259 292.035,36.424 292.325,37.333 293.917 C 38.232 295.489,39.356 297.373,39.671 297.833 C 39.926 298.207,40.940 299.835,41.332 300.500 C 41.765 301.234,42.107 301.760,42.792 302.740 C 43.090 303.167,43.333 303.547,43.333 303.583 C 43.333 303.620,43.577 303.999,43.875 304.426 C 44.173 304.853,44.529 305.373,44.667 305.581 C 45.387 306.670,46.249 307.927,46.328 308.000 C 46.377 308.046,46.675 308.458,46.991 308.917 C 48.546 311.172,54.959 319.536,55.489 320.000 C 55.541 320.046,56.145 320.758,56.831 321.583 C 57.517 322.408,58.229 323.238,58.414 323.427 C 58.599 323.616,59.237 324.326,59.833 325.006 C 64.561 330.402,70.654 336.429,76.675 341.667 C 77.255 342.171,78.034 342.855,78.406 343.187 C 79.270 343.958,85.773 349.151,87.249 350.250 C 89.251 351.740,91.785 353.577,92.421 354.000 C 92.628 354.137,93.162 354.507,93.607 354.821 C 95.494 356.150,98.327 358.000,98.477 358.000 C 98.566 358.000,98.664 358.065,98.694 358.145 C 98.739 358.262,101.430 359.968,103.697 361.317 C 104.720 361.926,108.269 363.951,108.500 364.058 C 108.638 364.121,109.050 364.353,109.417 364.574 C 110.951 365.495,118.829 369.524,120.790 370.390 C 121.501 370.704,122.496 371.148,123.000 371.376 C 123.504 371.604,124.742 372.147,125.750 372.583 C 126.758 373.018,127.808 373.472,128.083 373.591 C 129.016 373.996,131.579 375.030,132.417 375.340 C 132.875 375.510,133.550 375.760,133.917 375.897 C 138.049 377.438,144.069 379.442,147.250 380.335 C 147.983 380.541,149.033 380.842,149.583 381.005 C 151.013 381.427,154.358 382.285,157.250 382.973 C 158.553 383.283,160.215 383.636,163.583 384.318 C 170.388 385.696,180.158 387.008,186.083 387.340 C 187.550 387.422,189.950 387.566,191.417 387.661 C 194.850 387.881,205.305 387.882,208.750 387.662 C 210.217 387.568,212.587 387.424,214.017 387.343 C 218.862 387.067,227.844 385.953,232.500 385.051 C 233.279 384.900,234.292 384.728,234.750 384.669 C 235.208 384.610,236.183 384.432,236.917 384.274 C 237.650 384.115,238.963 383.833,239.833 383.646 C 243.388 382.885,248.241 381.692,250.583 381.004 C 251.133 380.842,252.183 380.540,252.917 380.333 C 255.050 379.731,261.516 377.646,263.250 377.000 C 263.708 376.829,264.533 376.528,265.083 376.331 C 265.633 376.133,266.421 375.833,266.833 375.663 C 267.246 375.493,268.108 375.154,268.750 374.910 C 269.392 374.666,270.142 374.372,270.417 374.257 C 270.692 374.143,271.292 373.895,271.750 373.706 C 276.554 371.731,284.725 367.874,288.667 365.721 C 289.446 365.295,290.346 364.806,290.667 364.633 C 290.987 364.461,291.550 364.139,291.917 363.918 C 292.283 363.697,292.696 363.462,292.833 363.396 C 293.513 363.069,296.193 361.495,297.549 360.625 C 298.085 360.281,298.561 360.000,298.607 360.000 C 298.653 360.000,299.008 359.781,299.397 359.513 L 300.105 359.027 300.075 354.805 C 299.990 342.938,297.440 331.123,291.916 317.000 C 278.755 283.358,247.741 249.566,206.333 223.753 C 205.188 223.039,203.987 222.284,203.667 222.075 C 201.294 220.532,192.638 215.513,187.583 212.748 C 149.066 191.679,121.745 169.065,101.926 141.847 C 83.590 116.666,73.340 87.079,75.738 66.250 C 76.246 61.836,76.325 61.271,76.597 60.045 C 76.935 58.526,76.915 58.506,75.911 59.377 M64.980 91.601 C 75.130 140.812,116.969 188.617,179.833 222.832 C 219.422 244.379,248.602 269.161,267.032 296.889 C 277.369 312.440,284.280 329.093,286.584 344.002 C 286.732 344.963,286.892 345.881,286.938 346.042 C 287.063 346.474,286.985 346.456,282.092 344.900 C 263.237 338.903,244.316 331.867,229.767 325.440 L 227.450 324.417 227.404 321.000 C 227.257 310.038,224.887 298.307,220.248 285.583 C 217.826 278.942,213.623 269.835,212.332 268.435 C 209.648 265.522,204.793 265.931,202.587 269.256 C 201.128 271.454,201.126 273.469,202.580 276.333 C 207.975 286.960,212.337 300.150,214.009 310.896 C 214.359 313.143,214.864 318.358,214.744 318.479 C 214.627 318.595,212.862 317.760,206.833 314.738 C 183.581 303.081,163.783 290.705,145.333 276.294 C 142.611 274.168,142.746 274.451,143.401 272.250 C 146.115 263.133,145.781 249.526,142.573 238.489 C 141.959 236.374,141.573 235.565,140.764 234.699 C 137.262 230.947,130.973 232.875,129.997 238.000 C 129.793 239.071,129.865 239.634,130.510 242.000 C 132.343 248.726,133.061 256.204,132.482 262.546 C 132.203 265.612,132.476 265.597,129.321 262.720 C 112.378 247.271,97.952 229.452,90.824 215.169 C 88.364 210.239,85.333 208.742,81.554 210.591 C 77.734 212.459,77.141 215.957,79.754 221.186 C 86.926 235.534,100.356 252.504,117.557 268.952 L 120.364 271.635 119.057 271.760 C 112.209 272.416,99.225 270.273,91.526 267.217 C 88.527 266.027,86.771 265.981,84.785 267.039 C 80.261 269.450,80.571 276.176,85.304 278.284 C 97.749 283.828,117.773 285.887,132.156 283.100 L 133.395 282.860 135.322 284.402 C 153.272 298.757,172.401 311.031,196.250 323.496 C 197.350 324.071,198.400 324.625,198.583 324.726 C 199.116 325.021,197.718 325.129,191.667 325.261 C 175.518 325.612,163.143 322.785,153.334 316.505 C 149.619 314.126,147.027 314.104,144.514 316.431 C 141.262 319.441,141.880 323.953,145.916 326.662 C 162.420 337.740,187.667 340.815,215.791 335.171 L 219.059 334.515 223.407 336.411 C 228.809 338.766,234.536 341.148,239.750 343.208 C 245.542 345.496,246.838 345.994,250.917 347.498 C 252.933 348.241,254.958 348.991,255.417 349.165 C 258.906 350.485,272.925 355.236,276.875 356.436 C 277.402 356.596,277.833 356.777,277.833 356.838 C 277.833 357.060,271.181 360.132,266.662 361.996 C 256.130 366.342,244.810 369.727,233.500 371.914 C 180.151 382.228,125.428 367.419,84.592 331.618 C 79.110 326.811,73.101 320.772,68.057 315.000 C 12.557 251.487,10.572 156.050,63.393 90.691 C 64.541 89.270,64.493 89.243,64.980 91.601 " stroke="none" fill="#fbfbfb" fill-rule="evenodd"></path><path id="path1" d="M192.167 25.270 C 181.774 25.947,173.613 26.915,167.000 28.256 C 161.725 29.325,160.656 29.564,157.167 30.457 C 155.929 30.774,154.622 31.104,154.262 31.191 C 151.796 31.784,143.017 34.574,139.917 35.748 C 139.275 35.991,138.375 36.328,137.917 36.495 C 134.651 37.691,128.866 40.177,124.690 42.181 C 121.286 43.814,121.096 43.460,126.250 45.095 C 133.281 47.326,142.816 50.599,149.000 52.905 C 149.321 53.025,150.408 53.428,151.417 53.801 C 154.527 54.952,155.376 55.272,156.542 55.727 C 157.160 55.969,158.135 56.348,158.708 56.569 C 164.902 58.964,174.551 62.959,180.065 65.413 L 182.214 66.369 184.065 65.948 C 199.704 62.395,216.227 61.675,230.167 63.940 C 240.178 65.566,249.662 69.148,256.881 74.029 C 262.564 77.872,260.502 85.916,253.833 85.916 C 251.809 85.917,251.503 85.801,248.500 83.890 C 239.842 78.381,227.876 75.479,213.667 75.441 C 209.627 75.430,202.391 75.801,202.620 76.007 C 202.692 76.071,204.175 76.858,205.917 77.755 C 210.205 79.965,214.072 82.037,217.417 83.920 C 218.425 84.488,219.700 85.198,220.250 85.499 C 223.350 87.193,231.251 91.902,236.000 94.886 C 245.779 101.029,257.177 109.027,265.250 115.408 C 266.625 116.495,267.838 117.453,267.946 117.536 C 268.068 117.630,268.864 117.559,270.030 117.351 C 281.436 115.316,296.303 115.884,307.083 118.766 C 309.882 119.515,310.188 119.606,312.083 120.250 C 319.086 122.632,320.672 123.961,320.957 127.687 C 321.342 132.714,316.621 135.615,311.333 133.599 C 302.472 130.221,291.602 128.402,283.361 128.917 L 281.431 129.037 282.174 129.713 C 299.507 145.472,314.970 164.333,322.515 178.917 C 324.641 183.027,324.902 184.390,324.000 186.696 C 322.339 190.942,316.586 192.038,313.466 188.703 C 312.991 188.195,312.319 187.133,311.740 185.977 C 310.839 184.179,308.437 179.894,307.830 179.000 C 307.674 178.771,306.887 177.571,306.080 176.333 C 298.064 164.029,284.292 148.493,271.449 137.268 C 270.111 136.098,270.241 136.020,269.995 138.138 C 269.364 143.570,270.529 154.493,272.256 159.344 C 273.700 163.400,270.599 167.833,266.317 167.833 C 261.414 167.833,259.768 165.082,257.942 153.831 C 256.474 144.788,256.750 136.307,258.759 128.709 C 258.983 127.862,259.167 127.102,259.167 127.022 C 259.167 126.825,252.907 121.999,248.500 118.799 C 236.625 110.178,221.651 100.720,209.500 94.167 C 208.537 93.648,207.097 92.870,206.299 92.439 C 202.749 90.519,200.345 89.281,194.424 86.325 C 187.221 82.729,187.816 82.952,187.919 83.875 C 188.492 88.993,188.966 92.082,189.686 95.382 C 191.635 104.323,195.591 115.416,199.826 123.814 C 201.292 126.721,201.481 127.869,200.823 129.872 C 199.256 134.643,192.913 135.888,189.853 132.025 C 188.983 130.927,186.362 125.521,184.394 120.766 C 178.472 106.458,175.419 93.397,175.055 80.803 L 174.950 77.190 172.683 76.189 C 166.539 73.478,157.880 69.951,150.667 67.222 C 148.604 66.442,146.467 65.630,145.917 65.418 C 145.037 65.079,142.872 64.299,135.917 61.814 C 131.377 60.192,112.175 53.980,112.035 54.088 C 112.008 54.108,112.106 54.641,112.253 55.271 C 121.833 96.388,154.195 136.085,202.709 166.230 C 203.281 166.586,204.012 167.048,204.333 167.256 C 206.305 168.535,214.546 173.361,217.417 174.917 C 218.058 175.265,219.071 175.827,219.667 176.167 C 220.262 176.508,221.350 177.108,222.083 177.501 C 226.916 180.094,234.630 184.657,240.917 188.641 C 277.973 212.121,305.639 240.789,321.522 272.167 C 325.167 279.368,327.441 284.759,330.168 292.667 C 331.751 297.258,333.662 304.537,334.517 309.236 C 334.904 311.362,334.960 311.489,335.316 311.044 C 351.366 291.010,362.168 270.299,368.502 247.417 C 368.705 246.683,368.971 245.746,369.093 245.333 C 369.215 244.921,369.615 243.346,369.981 241.833 C 378.491 206.706,376.112 170.036,363.163 136.750 C 342.911 84.694,298.988 45.353,245.083 30.988 C 230.435 27.085,217.021 25.332,201.167 25.251 C 196.721 25.228,192.671 25.237,192.167 25.270 M95.750 43.822 C 94.159 44.885,94.171 44.877,92.978 45.711 C 92.553 46.007,91.728 46.582,91.145 46.988 C 90.561 47.395,90.058 47.788,90.028 47.863 C 89.997 47.939,89.907 48.000,89.828 48.000 C 89.645 48.000,87.435 49.661,87.361 49.855 C 87.331 49.935,87.232 50.000,87.142 50.000 C 87.051 50.000,86.584 50.319,86.103 50.708 C 85.621 51.098,85.017 51.567,84.760 51.750 C 84.503 51.933,84.170 52.201,84.021 52.345 C 83.872 52.489,83.285 52.959,82.718 53.390 C 82.150 53.820,81.587 54.266,81.468 54.381 C 81.348 54.496,80.651 55.077,79.919 55.670 C 77.879 57.324,76.912 58.218,76.968 58.395 C 76.996 58.484,76.904 59.125,76.764 59.820 C 71.355 86.629,84.673 122.476,111.815 154.167 C 126.243 171.014,147.125 188.413,169.133 201.927 C 170.169 202.563,171.669 203.484,172.467 203.973 C 173.805 204.794,178.307 207.441,179.667 208.206 C 182.325 209.702,186.201 211.864,188.417 213.085 C 189.883 213.894,191.346 214.704,191.667 214.885 C 191.987 215.066,192.588 215.400,193.000 215.628 C 195.481 217.000,202.880 221.437,206.500 223.725 C 248.812 250.463,277.599 281.802,291.949 316.750 C 293.312 320.068,295.920 327.740,296.567 330.333 C 296.625 330.563,296.893 331.612,297.165 332.667 C 298.100 336.298,298.647 339.020,299.415 343.869 C 299.846 346.587,300.167 351.388,300.167 355.121 C 300.167 357.386,300.227 358.667,300.334 358.667 C 300.426 358.667,301.195 358.206,302.043 357.642 C 302.890 357.079,304.107 356.273,304.746 355.851 C 305.386 355.429,305.986 355.023,306.080 354.950 C 306.173 354.877,306.597 354.577,307.022 354.283 C 309.387 352.649,309.922 352.260,309.972 352.137 C 310.003 352.061,310.093 352.000,310.172 352.000 C 310.355 352.000,312.565 350.339,312.639 350.145 C 312.669 350.065,312.768 350.000,312.858 350.000 C 312.949 350.000,313.416 349.681,313.897 349.292 C 314.379 348.902,314.983 348.433,315.240 348.250 C 315.497 348.067,315.830 347.799,315.979 347.655 C 316.128 347.511,316.715 347.041,317.282 346.610 C 317.850 346.180,318.413 345.735,318.532 345.620 C 318.652 345.506,319.563 344.738,320.557 343.914 C 321.551 343.091,322.499 342.299,322.663 342.156 C 323.324 341.577,323.675 323.455,323.111 319.000 C 322.641 315.290,321.330 307.901,321.064 307.469 C 321.026 307.407,320.930 307.032,320.853 306.636 C 320.625 305.478,319.746 302.295,318.835 299.333 C 312.280 278.014,299.149 256.478,281.241 237.676 C 280.320 236.708,279.157 235.477,278.658 234.940 C 265.730 221.027,239.198 201.341,217.750 189.748 C 217.108 189.401,216.096 188.839,215.500 188.499 C 214.904 188.159,213.817 187.559,213.083 187.165 C 163.789 160.685,126.111 123.411,108.378 83.583 C 103.523 72.679,100.408 62.705,98.515 52.000 C 97.804 47.980,97.635 46.855,97.446 44.868 L 97.250 42.819 95.750 43.822 M62.880 91.535 C 55.205 101.196,48.963 111.060,43.335 122.417 C 40.240 128.663,38.309 133.042,36.500 137.917 C 36.330 138.375,35.991 139.275,35.748 139.917 C 34.560 143.050,31.793 151.761,31.191 154.262 C 31.104 154.622,30.774 155.929,30.457 157.167 C 29.564 160.656,29.325 161.725,28.256 167.000 C 24.759 184.246,24.228 205.935,26.844 224.583 C 35.615 287.087,77.745 340.208,136.750 363.163 C 164.797 374.074,195.405 377.514,225.583 373.147 C 231.638 372.270,241.307 370.286,245.333 369.093 C 245.746 368.971,246.683 368.705,247.417 368.502 C 251.450 367.385,256.974 365.584,261.250 363.990 C 265.757 362.311,269.371 360.796,273.667 358.789 C 277.930 356.796,277.939 356.790,276.975 356.578 C 275.068 356.159,256.207 349.657,249.667 347.164 C 249.162 346.972,248.075 346.564,247.250 346.259 C 243.795 344.979,235.434 341.646,230.833 339.714 C 228.118 338.574,221.408 335.691,220.250 335.167 C 219.440 334.801,218.930 334.666,218.583 334.727 C 218.308 334.775,216.996 335.038,215.667 335.312 C 188.220 340.953,162.091 337.769,145.933 326.815 C 144.376 325.759,144.322 325.712,143.629 324.801 C 140.434 320.602,143.411 314.761,148.750 314.753 C 150.814 314.750,150.782 314.738,153.917 316.735 C 155.387 317.672,159.185 319.640,160.667 320.233 C 170.216 324.056,181.169 325.716,193.167 325.160 C 199.155 324.882,198.952 324.988,196.201 323.585 C 192.865 321.883,189.173 319.916,186.610 318.474 C 185.983 318.122,185.447 317.833,185.418 317.833 C 185.185 317.833,174.493 311.594,170.000 308.836 C 164.460 305.436,156.116 299.949,151.500 296.670 C 150.171 295.726,148.752 294.721,148.346 294.435 C 146.330 293.016,139.387 287.761,136.595 285.540 C 133.052 282.723,133.659 282.949,130.917 283.424 C 120.360 285.255,106.065 284.602,95.500 281.807 C 94.446 281.528,93.358 281.242,93.083 281.171 C 88.931 280.099,84.188 278.034,83.092 276.821 C 78.844 272.119,83.842 264.199,89.667 266.402 C 97.171 269.240,100.785 270.187,107.552 271.090 C 111.105 271.565,119.688 271.869,119.899 271.529 C 119.946 271.453,118.296 269.784,116.233 267.821 C 100.327 252.683,86.205 234.628,79.416 220.750 C 77.016 215.842,77.791 212.263,81.648 210.448 C 85.337 208.712,88.497 210.218,90.749 214.786 C 97.563 228.607,112.048 246.696,128.161 261.507 C 129.304 262.557,130.624 263.773,131.094 264.208 C 131.564 264.644,131.986 265.000,132.031 265.000 C 132.242 265.000,132.581 260.267,132.562 257.583 C 132.524 252.370,131.747 246.929,130.266 241.500 C 129.601 239.062,129.757 237.239,130.770 235.635 C 133.774 230.876,141.128 232.117,142.483 237.612 C 142.570 237.963,142.867 239.150,143.144 240.250 C 146.069 251.880,146.110 263.065,143.262 273.167 C 143.120 273.671,143.003 274.131,143.002 274.190 C 142.992 274.746,157.853 285.665,165.750 290.904 C 172.646 295.479,180.920 300.595,186.333 303.632 C 186.746 303.864,188.433 304.815,190.083 305.747 C 191.733 306.679,193.758 307.804,194.583 308.246 C 195.408 308.689,196.571 309.317,197.167 309.641 C 199.646 310.991,204.227 313.326,209.000 315.674 C 211.796 317.050,214.215 318.249,214.375 318.339 C 214.758 318.554,214.755 318.341,214.335 314.471 C 213.039 302.554,208.923 289.377,202.408 276.282 C 199.961 271.364,202.662 266.333,207.750 266.333 C 210.873 266.333,212.452 267.680,214.665 272.228 C 222.817 288.985,227.057 304.934,227.475 320.411 L 227.583 324.404 230.250 325.546 C 236.361 328.163,242.593 330.716,247.833 332.748 C 248.704 333.085,249.867 333.537,250.417 333.751 C 250.967 333.965,253.067 334.750,255.083 335.496 C 257.100 336.242,259.125 336.994,259.583 337.167 C 261.340 337.828,270.190 340.906,273.259 341.923 C 277.705 343.396,286.437 346.166,286.638 346.166 C 286.792 346.166,286.831 346.025,286.766 345.708 C 286.715 345.456,286.525 344.378,286.344 343.311 C 285.437 337.977,284.512 334.331,282.544 328.333 C 281.657 325.629,281.394 324.908,280.210 321.917 C 265.779 285.481,230.093 250.053,181.417 223.834 C 180.683 223.439,179.521 222.800,178.833 222.414 C 178.146 222.029,177.058 221.427,176.417 221.078 C 168.742 216.900,156.064 208.993,148.333 203.563 C 147.737 203.145,146.650 202.384,145.917 201.873 C 106.962 174.718,77.535 136.918,67.195 100.750 C 67.011 100.108,66.712 99.058,66.530 98.417 C 66.030 96.661,65.037 92.555,64.755 91.084 C 64.619 90.369,64.477 89.755,64.441 89.719 C 64.404 89.682,63.702 90.499,62.880 91.535 " stroke="none" fill="#5c7444" fill-rule="evenodd"></path><path id="path2" d="M199.711 25.120 C 199.964 25.158,200.339 25.157,200.544 25.117 C 200.749 25.078,200.542 25.046,200.083 25.048 C 199.625 25.049,199.457 25.081,199.711 25.120 M214.708 25.782 C 214.869 25.823,215.131 25.823,215.292 25.782 C 215.452 25.740,215.321 25.705,215.000 25.705 C 214.679 25.705,214.548 25.740,214.708 25.782 M204.627 62.951 C 204.834 62.991,205.134 62.990,205.294 62.948 C 205.453 62.906,205.283 62.874,204.917 62.875 C 204.550 62.877,204.420 62.911,204.627 62.951 M221.208 62.948 C 221.369 62.990,221.631 62.990,221.792 62.948 C 221.952 62.906,221.821 62.872,221.500 62.872 C 221.179 62.872,221.048 62.906,221.208 62.948 M75.705 67.167 C 75.705 67.487,75.740 67.619,75.782 67.458 C 75.823 67.298,75.823 67.035,75.782 66.875 C 75.740 66.715,75.705 66.846,75.705 67.167 M63.324 71.292 L 62.750 71.917 63.375 71.342 C 63.719 71.026,64.000 70.745,64.000 70.717 C 64.000 70.590,63.859 70.710,63.324 71.292 M75.545 73.167 C 75.545 73.579,75.578 73.748,75.618 73.542 C 75.657 73.335,75.657 72.998,75.618 72.792 C 75.578 72.585,75.545 72.754,75.545 73.167 M210.377 75.453 C 210.631 75.491,211.006 75.490,211.211 75.451 C 211.416 75.411,211.208 75.380,210.750 75.381 C 210.292 75.382,210.124 75.415,210.377 75.453 M215.542 75.453 C 215.794 75.491,216.206 75.491,216.458 75.453 C 216.710 75.415,216.504 75.383,216.000 75.383 C 215.496 75.383,215.290 75.415,215.542 75.453 M206.708 75.615 C 206.869 75.657,207.131 75.657,207.292 75.615 C 207.452 75.573,207.321 75.539,207.000 75.539 C 206.679 75.539,206.548 75.573,206.708 75.615 M204.208 75.782 C 204.369 75.823,204.631 75.823,204.792 75.782 C 204.952 75.740,204.821 75.705,204.500 75.705 C 204.179 75.705,204.048 75.740,204.208 75.782 M221.542 75.782 C 221.702 75.823,221.965 75.823,222.125 75.782 C 222.285 75.740,222.154 75.705,221.833 75.705 C 221.512 75.705,221.381 75.740,221.542 75.782 M75.539 76.333 C 75.539 76.654,75.573 76.785,75.615 76.625 C 75.657 76.465,75.657 76.202,75.615 76.042 C 75.573 75.881,75.539 76.012,75.539 76.333 M175.042 82.083 C 175.044 82.450,175.078 82.580,175.118 82.373 C 175.158 82.166,175.156 81.866,175.115 81.706 C 175.073 81.547,175.040 81.717,175.042 82.083 M279.458 116.284 C 279.665 116.324,280.002 116.324,280.208 116.284 C 280.415 116.245,280.246 116.212,279.833 116.212 C 279.421 116.212,279.252 116.245,279.458 116.284 M290.458 116.284 C 290.665 116.324,291.002 116.324,291.208 116.284 C 291.415 116.245,291.246 116.212,290.833 116.212 C 290.421 116.212,290.252 116.245,290.458 116.284 M151.167 124.583 C 151.478 124.904,151.770 125.167,151.815 125.167 C 151.861 125.167,151.644 124.904,151.333 124.583 C 151.022 124.263,150.730 124.000,150.685 124.000 C 150.639 124.000,150.856 124.263,151.167 124.583 M156.500 130.083 C 158.102 131.688,159.451 133.000,159.496 133.000 C 159.542 133.000,158.269 131.688,156.667 130.083 C 155.064 128.479,153.716 127.167,153.670 127.167 C 153.624 127.167,154.898 128.479,156.500 130.083 M282.211 128.953 C 282.464 128.991,282.839 128.990,283.044 128.951 C 283.249 128.911,283.042 128.880,282.583 128.881 C 282.125 128.882,281.957 128.915,282.211 128.953 M287.877 128.953 C 288.131 128.991,288.506 128.990,288.711 128.951 C 288.916 128.911,288.708 128.880,288.250 128.881 C 287.792 128.882,287.624 128.915,287.877 128.953 M291.127 129.118 C 291.334 129.158,291.634 129.156,291.794 129.115 C 291.953 129.073,291.783 129.040,291.417 129.042 C 291.050 129.044,290.920 129.078,291.127 129.118 M189.833 132.052 C 189.833 132.081,190.077 132.325,190.375 132.594 L 190.917 133.083 190.427 132.542 C 189.971 132.037,189.833 131.923,189.833 132.052 M314.294 134.451 C 314.501 134.491,314.801 134.490,314.960 134.448 C 315.120 134.406,314.950 134.374,314.583 134.375 C 314.217 134.377,314.086 134.411,314.294 134.451 M144.833 136.417 C 145.331 136.921,145.776 137.333,145.822 137.333 C 145.868 137.333,145.498 136.921,145.000 136.417 C 144.502 135.912,144.057 135.500,144.011 135.500 C 143.966 135.500,144.335 135.912,144.833 136.417 M257.039 139.667 C 257.039 139.987,257.073 140.119,257.115 139.958 C 257.157 139.798,257.157 139.535,257.115 139.375 C 257.073 139.215,257.039 139.346,257.039 139.667 M274.000 139.552 C 274.000 139.581,274.244 139.825,274.542 140.094 L 275.083 140.583 274.594 140.042 C 274.138 139.537,274.000 139.423,274.000 139.552 M150.250 141.833 C 150.701 142.292,151.108 142.667,151.154 142.667 C 151.200 142.667,150.868 142.292,150.417 141.833 C 149.965 141.375,149.558 141.000,149.513 141.000 C 149.467 141.000,149.799 141.375,150.250 141.833 M269.720 142.667 C 269.720 143.262,269.750 143.506,269.787 143.208 C 269.824 142.910,269.824 142.423,269.787 142.125 C 269.750 141.827,269.720 142.071,269.720 142.667 M276.333 141.719 C 276.333 141.748,276.577 141.991,276.875 142.260 L 277.417 142.750 276.927 142.208 C 276.471 141.703,276.333 141.590,276.333 141.719 M257.042 145.583 C 257.044 145.950,257.078 146.080,257.118 145.873 C 257.158 145.666,257.156 145.366,257.115 145.206 C 257.073 145.047,257.040 145.217,257.042 145.583 M117.000 160.052 C 117.000 160.081,117.244 160.325,117.542 160.594 L 118.083 161.083 117.594 160.542 C 117.138 160.037,117.000 159.923,117.000 160.052 M121.917 165.167 C 122.830 166.083,123.615 166.833,123.660 166.833 C 123.706 166.833,122.997 166.083,122.083 165.167 C 121.170 164.250,120.385 163.500,120.340 163.500 C 120.294 163.500,121.003 164.250,121.917 165.167 M107.667 168.750 C 107.978 169.071,108.270 169.333,108.315 169.333 C 108.361 169.333,108.144 169.071,107.833 168.750 C 107.522 168.429,107.230 168.167,107.185 168.167 C 107.139 168.167,107.356 168.429,107.667 168.750 M126.333 169.385 C 126.333 169.414,126.577 169.658,126.875 169.927 L 127.417 170.417 126.927 169.875 C 126.471 169.370,126.333 169.257,126.333 169.385 M112.998 174.208 C 115.086 176.337,115.333 176.576,115.333 176.456 C 115.333 176.432,114.302 175.401,113.042 174.164 L 110.750 171.917 112.998 174.208 M118.000 179.052 C 118.000 179.081,118.244 179.325,118.542 179.594 L 119.083 180.083 118.594 179.542 C 118.138 179.037,118.000 178.923,118.000 179.052 M324.387 184.333 C 324.387 184.929,324.417 185.173,324.454 184.875 C 324.491 184.577,324.491 184.090,324.454 183.792 C 324.417 183.494,324.387 183.737,324.387 184.333 M25.705 185.167 C 25.705 185.487,25.740 185.619,25.782 185.458 C 25.823 185.298,25.823 185.035,25.782 184.875 C 25.740 184.715,25.705 184.846,25.705 185.167 M374.890 194.250 C 374.891 194.983,374.920 195.263,374.956 194.871 C 374.991 194.479,374.990 193.879,374.954 193.537 C 374.919 193.196,374.890 193.517,374.890 194.250 M25.045 200.000 C 25.045 200.412,25.078 200.581,25.118 200.375 C 25.157 200.169,25.157 199.831,25.118 199.625 C 25.078 199.419,25.045 199.588,25.045 200.000 M374.890 205.917 C 374.891 206.650,374.920 206.929,374.956 206.537 C 374.991 206.145,374.990 205.545,374.954 205.204 C 374.919 204.863,374.890 205.183,374.890 205.917 M25.705 215.000 C 25.705 215.321,25.740 215.452,25.782 215.292 C 25.823 215.131,25.823 214.869,25.782 214.708 C 25.740 214.548,25.705 214.679,25.705 215.000 M374.205 216.500 C 374.205 216.821,374.240 216.952,374.282 216.792 C 374.323 216.631,374.323 216.369,374.282 216.208 C 374.240 216.048,374.205 216.179,374.205 216.500 M282.493 220.875 C 283.184 221.611,283.333 221.743,283.333 221.618 C 283.333 221.591,282.977 221.235,282.542 220.826 L 281.750 220.083 282.493 220.875 M271.250 227.833 C 271.608 228.200,271.938 228.500,271.984 228.500 C 272.030 228.500,271.775 228.200,271.417 227.833 C 271.059 227.467,270.728 227.167,270.682 227.167 C 270.637 227.167,270.892 227.467,271.250 227.833 M290.167 228.583 C 290.478 228.904,290.770 229.167,290.815 229.167 C 290.861 229.167,290.644 228.904,290.333 228.583 C 290.022 228.262,289.730 228.000,289.685 228.000 C 289.639 228.000,289.856 228.262,290.167 228.583 M274.417 230.833 C 274.961 231.383,275.444 231.833,275.490 231.833 C 275.535 231.833,275.128 231.383,274.583 230.833 C 274.039 230.283,273.556 229.833,273.510 229.833 C 273.465 229.833,273.872 230.283,274.417 230.833 M292.167 230.719 C 292.167 230.748,292.410 230.991,292.708 231.260 L 293.250 231.750 292.760 231.208 C 292.304 230.703,292.167 230.590,292.167 230.719 M280.083 236.500 C 280.535 236.958,280.942 237.333,280.987 237.333 C 281.033 237.333,280.701 236.958,280.250 236.500 C 279.799 236.042,279.392 235.667,279.346 235.667 C 279.300 235.667,279.632 236.042,280.083 236.500 M145.039 251.667 C 145.039 251.987,145.073 252.119,145.115 251.958 C 145.157 251.798,145.157 251.535,145.115 251.375 C 145.073 251.215,145.039 251.346,145.039 251.667 M248.667 256.052 C 248.667 256.081,248.910 256.325,249.208 256.594 L 249.750 257.083 249.260 256.542 C 248.804 256.037,248.667 255.923,248.667 256.052 M107.333 258.917 C 107.644 259.237,107.936 259.500,107.982 259.500 C 108.028 259.500,107.811 259.237,107.500 258.917 C 107.189 258.596,106.897 258.333,106.851 258.333 C 106.805 258.333,107.022 258.596,107.333 258.917 M112.417 264.167 C 113.422 265.175,114.282 266.000,114.328 266.000 C 114.373 266.000,113.589 265.175,112.583 264.167 C 111.578 263.158,110.718 262.333,110.672 262.333 C 110.627 262.333,111.411 263.158,112.417 264.167 M257.000 264.385 C 257.000 264.414,257.244 264.658,257.542 264.927 L 258.083 265.417 257.594 264.875 C 257.138 264.370,257.000 264.257,257.000 264.385 M240.500 265.917 C 240.811 266.237,241.103 266.500,241.149 266.500 C 241.195 266.500,240.978 266.237,240.667 265.917 C 240.356 265.596,240.064 265.333,240.018 265.333 C 239.972 265.333,240.189 265.596,240.500 265.917 M83.240 268.042 L 82.750 268.583 83.292 268.094 C 83.797 267.638,83.910 267.500,83.781 267.500 C 83.752 267.500,83.509 267.744,83.240 268.042 M203.240 268.208 L 202.750 268.750 203.292 268.260 C 203.797 267.804,203.910 267.667,203.781 267.667 C 203.752 267.667,203.509 267.910,203.240 268.208 M117.667 269.250 C 117.978 269.571,118.270 269.833,118.315 269.833 C 118.361 269.833,118.144 269.571,117.833 269.250 C 117.522 268.929,117.230 268.667,117.185 268.667 C 117.139 268.667,117.356 268.929,117.667 269.250 M112.708 271.619 C 112.960 271.658,113.373 271.658,113.625 271.619 C 113.877 271.581,113.671 271.550,113.167 271.550 C 112.662 271.550,112.456 271.581,112.708 271.619 M201.372 272.667 C 201.372 272.987,201.406 273.119,201.448 272.958 C 201.490 272.798,201.490 272.535,201.448 272.375 C 201.406 272.215,201.372 272.346,201.372 272.667 M248.083 273.500 C 248.441 273.867,248.772 274.167,248.818 274.167 C 248.863 274.167,248.608 273.867,248.250 273.500 C 247.892 273.133,247.562 272.833,247.516 272.833 C 247.470 272.833,247.725 273.133,248.083 273.500 M115.051 284.458 C 116.133 284.487,117.858 284.487,118.884 284.458 C 119.910 284.428,119.025 284.405,116.917 284.405 C 114.808 284.405,113.969 284.429,115.051 284.458 M180.375 324.948 C 180.535 324.990,180.798 324.990,180.958 324.948 C 181.119 324.906,180.987 324.872,180.667 324.872 C 180.346 324.872,180.215 324.906,180.375 324.948 M197.708 324.948 C 197.869 324.990,198.131 324.990,198.292 324.948 C 198.452 324.906,198.321 324.872,198.000 324.872 C 197.679 324.872,197.548 324.906,197.708 324.948 M186.042 325.286 C 186.294 325.324,186.706 325.324,186.958 325.286 C 187.210 325.248,187.004 325.217,186.500 325.217 C 185.996 325.217,185.790 325.248,186.042 325.286 M191.458 325.284 C 191.665 325.324,192.002 325.324,192.208 325.284 C 192.415 325.245,192.246 325.212,191.833 325.212 C 191.421 325.212,191.252 325.245,191.458 325.284 M323.385 330.083 C 323.386 330.633,323.417 330.838,323.454 330.539 C 323.491 330.239,323.490 329.789,323.452 329.539 C 323.414 329.288,323.384 329.533,323.385 330.083 M323.218 335.750 C 323.219 336.300,323.250 336.505,323.287 336.205 C 323.325 335.906,323.324 335.456,323.286 335.205 C 323.248 334.955,323.217 335.200,323.218 335.750 M180.794 337.785 C 181.001 337.824,181.301 337.823,181.460 337.781 C 181.620 337.739,181.450 337.707,181.083 337.709 C 180.717 337.711,180.586 337.745,180.794 337.785 M197.294 337.785 C 197.501 337.824,197.801 337.823,197.960 337.781 C 198.120 337.739,197.950 337.707,197.583 337.709 C 197.217 337.711,197.086 337.745,197.294 337.785 M323.045 339.667 C 323.045 340.079,323.078 340.248,323.118 340.042 C 323.157 339.835,323.157 339.498,323.118 339.292 C 323.078 339.085,323.045 339.254,323.045 339.667 M216.208 374.282 C 216.369 374.323,216.631 374.323,216.792 374.282 C 216.952 374.240,216.821 374.205,216.500 374.205 C 216.179 374.205,216.048 374.240,216.208 374.282 M193.629 374.956 C 194.021 374.991,194.621 374.990,194.963 374.954 C 195.304 374.919,194.983 374.890,194.250 374.890 C 193.517 374.891,193.237 374.920,193.629 374.956 M205.296 374.956 C 205.688 374.991,206.288 374.990,206.629 374.954 C 206.971 374.919,206.650 374.890,205.917 374.890 C 205.183 374.891,204.904 374.920,205.296 374.956 " stroke="none" fill="#92a185" fill-rule="evenodd"></path><path id="path3" d="M193.958 12.455 C 194.348 12.490,194.985 12.490,195.375 12.455 C 195.765 12.420,195.446 12.392,194.667 12.392 C 193.887 12.392,193.569 12.420,193.958 12.455 M204.958 12.455 C 205.348 12.490,205.985 12.490,206.375 12.455 C 206.765 12.420,206.446 12.392,205.667 12.392 C 204.887 12.392,204.569 12.420,204.958 12.455 M190.542 12.619 C 190.794 12.658,191.206 12.658,191.458 12.619 C 191.710 12.581,191.504 12.550,191.000 12.550 C 190.496 12.550,190.290 12.581,190.542 12.619 M208.877 12.620 C 209.131 12.658,209.506 12.657,209.711 12.617 C 209.916 12.578,209.708 12.546,209.250 12.548 C 208.792 12.549,208.624 12.581,208.877 12.620 M188.127 12.785 C 188.334 12.824,188.634 12.823,188.794 12.781 C 188.953 12.739,188.783 12.707,188.417 12.709 C 188.050 12.711,187.920 12.745,188.127 12.785 M213.294 12.785 C 213.501 12.824,213.801 12.823,213.960 12.781 C 214.120 12.739,213.950 12.707,213.583 12.709 C 213.217 12.711,213.086 12.745,213.294 12.785 M195.629 25.122 C 196.021 25.157,196.621 25.157,196.963 25.121 C 197.304 25.085,196.983 25.057,196.250 25.057 C 195.517 25.058,195.237 25.087,195.629 25.122 M203.296 25.122 C 203.688 25.157,204.288 25.157,204.629 25.121 C 204.971 25.085,204.650 25.057,203.917 25.057 C 203.183 25.058,202.904 25.087,203.296 25.122 M213.542 25.615 C 213.702 25.657,213.965 25.657,214.125 25.615 C 214.285 25.573,214.154 25.539,213.833 25.539 C 213.512 25.539,213.381 25.573,213.542 25.615 M107.292 36.762 C 106.669 37.100,106.707 37.241,107.333 36.917 C 107.608 36.774,107.833 36.623,107.833 36.579 C 107.833 36.472,107.815 36.478,107.292 36.762 M73.740 61.208 L 73.250 61.750 73.792 61.260 C 74.297 60.804,74.410 60.667,74.281 60.667 C 74.252 60.667,74.009 60.910,73.740 61.208 M71.452 63.264 C 70.738 63.954,70.288 64.445,70.452 64.355 C 70.755 64.188,72.972 61.996,72.829 62.005 C 72.785 62.008,72.166 62.575,71.452 63.264 M209.458 62.784 C 209.665 62.824,210.002 62.824,210.208 62.784 C 210.415 62.745,210.246 62.712,209.833 62.712 C 209.421 62.712,209.252 62.745,209.458 62.784 M216.627 62.785 C 216.834 62.824,217.134 62.823,217.294 62.781 C 217.453 62.739,217.283 62.707,216.917 62.709 C 216.550 62.711,216.420 62.745,216.627 62.785 M75.545 68.333 C 75.545 68.746,75.578 68.915,75.618 68.708 C 75.657 68.502,75.657 68.165,75.618 67.958 C 75.578 67.752,75.545 67.921,75.545 68.333 M63.174 71.556 L 61.932 72.917 63.061 71.833 C 63.982 70.950,64.696 70.109,64.464 70.181 C 64.438 70.190,63.858 70.808,63.174 71.556 M61.073 73.875 L 60.583 74.417 61.125 73.927 C 61.630 73.471,61.743 73.333,61.615 73.333 C 61.586 73.333,61.342 73.577,61.073 73.875 M323.664 76.208 C 325.752 78.337,326.000 78.576,326.000 78.456 C 326.000 78.432,324.969 77.401,323.708 76.164 L 321.417 73.917 323.664 76.208 M208.708 75.448 C 208.869 75.490,209.131 75.490,209.292 75.448 C 209.452 75.406,209.321 75.372,209.000 75.372 C 208.679 75.372,208.548 75.406,208.708 75.448 M205.542 75.615 C 205.702 75.657,205.965 75.657,206.125 75.615 C 206.285 75.573,206.154 75.539,205.833 75.539 C 205.512 75.539,205.381 75.573,205.542 75.615 M220.375 75.615 C 220.535 75.657,220.798 75.657,220.958 75.615 C 221.119 75.573,220.987 75.539,220.667 75.539 C 220.346 75.539,220.215 75.573,220.375 75.615 M75.542 77.417 C 75.544 77.783,75.578 77.914,75.618 77.706 C 75.658 77.499,75.656 77.199,75.615 77.040 C 75.573 76.880,75.540 77.050,75.542 77.417 M175.064 79.083 C 175.064 80.183,175.091 80.612,175.124 80.035 C 175.156 79.459,175.156 78.559,175.123 78.035 C 175.090 77.512,175.063 77.983,175.064 79.083 M49.801 87.458 C 49.508 87.800,49.287 88.167,49.375 88.167 C 49.409 88.167,49.604 87.942,49.807 87.667 C 50.209 87.123,50.205 86.988,49.801 87.458 M36.750 107.333 C 36.608 107.608,36.529 107.833,36.575 107.833 C 36.621 107.833,36.774 107.608,36.917 107.333 C 37.059 107.058,37.138 106.833,37.092 106.833 C 37.046 106.833,36.892 107.058,36.750 107.333 M281.125 116.284 C 281.331 116.324,281.669 116.324,281.875 116.284 C 282.081 116.245,281.912 116.212,281.500 116.212 C 281.087 116.212,280.919 116.245,281.125 116.284 M288.960 116.285 C 289.168 116.324,289.468 116.323,289.627 116.281 C 289.786 116.239,289.617 116.207,289.250 116.209 C 288.883 116.211,288.753 116.245,288.960 116.285 M292.042 116.448 C 292.202 116.490,292.465 116.490,292.625 116.448 C 292.785 116.406,292.654 116.372,292.333 116.372 C 292.012 116.372,291.881 116.406,292.042 116.448 M318.500 123.052 C 318.500 123.081,318.744 123.325,319.042 123.594 L 319.583 124.083 319.094 123.542 C 318.638 123.037,318.500 122.923,318.500 123.052 M152.000 125.552 C 152.000 125.581,152.244 125.825,152.542 126.094 L 153.083 126.583 152.594 126.042 C 152.138 125.537,152.000 125.423,152.000 125.552 M320.875 128.083 C 320.877 128.450,320.911 128.580,320.951 128.373 C 320.991 128.166,320.990 127.866,320.948 127.706 C 320.906 127.547,320.874 127.717,320.875 128.083 M289.627 128.951 C 289.834 128.991,290.134 128.990,290.294 128.948 C 290.453 128.906,290.283 128.874,289.917 128.875 C 289.550 128.877,289.420 128.911,289.627 128.951 M160.000 133.552 C 160.000 133.581,160.244 133.825,160.542 134.094 L 161.083 134.583 160.594 134.042 C 160.138 133.537,160.000 133.423,160.000 133.552 M143.167 134.583 C 143.478 134.904,143.770 135.167,143.815 135.167 C 143.861 135.167,143.644 134.904,143.333 134.583 C 143.022 134.262,142.730 134.000,142.685 134.000 C 142.639 134.000,142.856 134.262,143.167 134.583 M287.500 134.917 C 287.998 135.421,288.443 135.833,288.489 135.833 C 288.534 135.833,288.165 135.421,287.667 134.917 C 287.169 134.412,286.724 134.000,286.678 134.000 C 286.632 134.000,287.002 134.412,287.500 134.917 M194.460 134.285 C 194.668 134.324,194.968 134.323,195.127 134.281 C 195.286 134.239,195.117 134.207,194.750 134.209 C 194.383 134.211,194.253 134.245,194.460 134.285 M272.833 138.385 C 272.833 138.414,273.077 138.658,273.375 138.927 L 273.917 139.417 273.427 138.875 C 272.971 138.370,272.833 138.257,272.833 138.385 M269.709 140.417 C 269.711 140.783,269.745 140.914,269.785 140.706 C 269.824 140.499,269.823 140.199,269.781 140.040 C 269.739 139.880,269.707 140.050,269.709 140.417 M257.064 142.583 C 257.064 143.683,257.091 144.112,257.124 143.535 C 257.156 142.959,257.156 142.059,257.123 141.535 C 257.090 141.012,257.063 141.483,257.064 142.583 M293.917 141.333 C 294.275 141.700,294.605 142.000,294.651 142.000 C 294.697 142.000,294.441 141.700,294.083 141.333 C 293.725 140.967,293.395 140.667,293.349 140.667 C 293.303 140.667,293.559 140.967,293.917 141.333 M278.917 144.167 C 279.368 144.625,279.775 145.000,279.821 145.000 C 279.867 145.000,279.535 144.625,279.083 144.167 C 278.632 143.708,278.225 143.333,278.179 143.333 C 278.133 143.333,278.465 143.708,278.917 144.167 M269.709 144.917 C 269.711 145.283,269.745 145.414,269.785 145.206 C 269.824 144.999,269.823 144.699,269.781 144.540 C 269.739 144.380,269.707 144.550,269.709 144.917 M284.417 149.667 C 284.868 150.125,285.275 150.500,285.321 150.500 C 285.367 150.500,285.035 150.125,284.583 149.667 C 284.132 149.208,283.725 148.833,283.679 148.833 C 283.633 148.833,283.965 149.208,284.417 149.667 M118.826 162.042 C 119.517 162.778,119.667 162.910,119.667 162.785 C 119.667 162.758,119.310 162.402,118.875 161.993 L 118.083 161.250 118.826 162.042 M125.160 168.375 C 125.568 168.810,125.925 169.167,125.951 169.167 C 126.077 169.167,125.944 169.017,125.208 168.326 L 124.417 167.583 125.160 168.375 M109.493 170.542 C 110.184 171.278,110.333 171.410,110.333 171.285 C 110.333 171.258,109.977 170.902,109.542 170.493 L 108.750 169.750 109.493 170.542 M116.660 177.708 C 117.350 178.444,117.500 178.577,117.500 178.451 C 117.500 178.425,117.144 178.068,116.708 177.660 L 115.917 176.917 116.660 177.708 M12.709 188.417 C 12.711 188.783,12.745 188.914,12.785 188.706 C 12.824 188.499,12.823 188.199,12.781 188.040 C 12.739 187.880,12.707 188.050,12.709 188.417 M313.000 188.219 C 313.000 188.248,313.244 188.491,313.542 188.760 L 314.083 189.250 313.594 188.708 C 313.138 188.203,313.000 188.090,313.000 188.219 M12.548 191.083 C 12.549 191.542,12.581 191.709,12.620 191.456 C 12.658 191.203,12.657 190.828,12.617 190.623 C 12.578 190.418,12.546 190.625,12.548 191.083 M374.875 192.083 C 374.877 192.450,374.911 192.580,374.951 192.373 C 374.991 192.166,374.990 191.866,374.948 191.706 C 374.906 191.547,374.874 191.717,374.875 192.083 M12.390 194.583 C 12.391 195.317,12.420 195.596,12.456 195.204 C 12.491 194.812,12.490 194.212,12.454 193.871 C 12.419 193.529,12.390 193.850,12.390 194.583 M25.058 196.167 C 25.058 196.946,25.087 197.265,25.122 196.875 C 25.157 196.485,25.157 195.848,25.122 195.458 C 25.087 195.069,25.058 195.387,25.058 196.167 M375.071 200.083 C 375.071 202.008,375.095 202.773,375.124 201.783 C 375.154 200.792,375.154 199.217,375.124 198.283 C 375.095 197.348,375.070 198.158,375.071 200.083 M25.057 203.917 C 25.058 204.650,25.087 204.929,25.122 204.537 C 25.157 204.145,25.157 203.545,25.121 203.204 C 25.085 202.863,25.057 203.183,25.057 203.917 M12.392 205.667 C 12.392 206.446,12.420 206.765,12.455 206.375 C 12.490 205.985,12.490 205.348,12.455 204.958 C 12.420 204.569,12.392 204.887,12.392 205.667 M374.875 208.083 C 374.877 208.450,374.911 208.580,374.951 208.373 C 374.991 208.166,374.990 207.866,374.948 207.706 C 374.906 207.547,374.874 207.717,374.875 208.083 M12.550 209.167 C 12.550 209.671,12.581 209.877,12.619 209.625 C 12.658 209.373,12.658 208.960,12.619 208.708 C 12.581 208.456,12.550 208.662,12.550 209.167 M12.709 213.583 C 12.711 213.950,12.745 214.080,12.785 213.873 C 12.824 213.666,12.823 213.366,12.781 213.206 C 12.739 213.047,12.707 213.217,12.709 213.583 M25.539 213.833 C 25.539 214.154,25.573 214.285,25.615 214.125 C 25.657 213.965,25.657 213.702,25.615 213.542 C 25.573 213.381,25.539 213.512,25.539 213.833 M286.164 224.542 C 288.252 226.670,288.500 226.909,288.500 226.789 C 288.500 226.765,287.469 225.734,286.208 224.498 L 283.917 222.250 286.164 224.542 M272.583 229.000 C 272.941 229.367,273.272 229.667,273.318 229.667 C 273.363 229.667,273.108 229.367,272.750 229.000 C 272.392 228.633,272.062 228.333,272.016 228.333 C 271.970 228.333,272.225 228.633,272.583 229.000 M290.833 229.385 C 290.833 229.414,291.077 229.658,291.375 229.927 L 291.917 230.417 291.427 229.875 C 290.971 229.370,290.833 229.257,290.833 229.385 M281.500 237.885 C 281.500 237.914,281.744 238.158,282.042 238.427 L 282.583 238.917 282.094 238.375 C 281.638 237.870,281.500 237.757,281.500 237.885 M118.583 252.333 C 119.128 252.883,119.610 253.333,119.656 253.333 C 119.702 253.333,119.294 252.883,118.750 252.333 C 118.206 251.783,117.723 251.333,117.677 251.333 C 117.631 251.333,118.039 251.783,118.583 252.333 M247.333 254.885 C 247.333 254.914,247.577 255.158,247.875 255.427 L 248.417 255.917 247.927 255.375 C 247.471 254.870,247.333 254.757,247.333 254.885 M124.250 258.000 C 124.794 258.550,125.277 259.000,125.323 259.000 C 125.369 259.000,124.961 258.550,124.417 258.000 C 123.872 257.450,123.390 257.000,123.344 257.000 C 123.298 257.000,123.706 257.450,124.250 258.000 M251.000 258.417 C 251.498 258.921,251.943 259.333,251.989 259.333 C 252.034 259.333,251.665 258.921,251.167 258.417 C 250.669 257.912,250.224 257.500,250.178 257.500 C 250.132 257.500,250.502 257.912,251.000 258.417 M108.993 260.542 C 109.402 260.977,109.758 261.333,109.785 261.333 C 109.910 261.333,109.778 261.184,109.042 260.493 L 108.250 259.750 108.993 260.542 M127.333 260.885 C 127.333 260.914,127.577 261.158,127.875 261.427 L 128.417 261.917 127.927 261.375 C 127.471 260.870,127.333 260.757,127.333 260.885 M255.667 263.083 C 256.165 263.587,256.609 264.000,256.655 264.000 C 256.701 264.000,256.331 263.587,255.833 263.083 C 255.335 262.579,254.891 262.167,254.845 262.167 C 254.799 262.167,255.169 262.579,255.667 263.083 M115.583 267.167 C 116.128 267.717,116.610 268.167,116.656 268.167 C 116.702 268.167,116.294 267.717,115.750 267.167 C 115.206 266.617,114.723 266.167,114.677 266.167 C 114.631 266.167,115.039 266.617,115.583 267.167 M207.460 266.451 C 207.668 266.491,207.968 266.490,208.127 266.448 C 208.286 266.406,208.117 266.374,207.750 266.375 C 207.383 266.377,207.253 266.411,207.460 266.451 M244.333 269.583 C 245.844 271.096,247.117 272.333,247.163 272.333 C 247.209 272.333,246.010 271.096,244.500 269.583 C 242.990 268.071,241.716 266.833,241.670 266.833 C 241.625 266.833,242.823 268.071,244.333 269.583 M115.701 271.790 C 116.316 271.822,117.366 271.822,118.034 271.791 C 118.703 271.759,118.200 271.733,116.917 271.732 C 115.633 271.732,115.086 271.758,115.701 271.790 M111.792 284.284 C 111.998 284.324,112.335 284.324,112.542 284.284 C 112.748 284.245,112.579 284.212,112.167 284.212 C 111.754 284.212,111.585 284.245,111.792 284.284 M121.458 284.284 C 121.665 284.324,122.002 284.324,122.208 284.284 C 122.415 284.245,122.246 284.212,121.833 284.212 C 121.421 284.212,121.252 284.245,121.458 284.284 M227.375 319.417 C 227.377 319.783,227.411 319.914,227.451 319.706 C 227.491 319.499,227.490 319.199,227.448 319.040 C 227.406 318.880,227.374 319.050,227.375 319.417 M142.379 321.000 C 142.379 321.412,142.411 321.581,142.451 321.375 C 142.491 321.169,142.491 320.831,142.451 320.625 C 142.411 320.419,142.379 320.587,142.379 321.000 M76.164 323.708 C 78.252 325.837,78.500 326.076,78.500 325.956 C 78.500 325.932,77.469 324.901,76.208 323.664 L 73.917 321.417 76.164 323.708 M227.375 323.750 C 227.377 324.117,227.411 324.247,227.451 324.040 C 227.491 323.832,227.490 323.532,227.448 323.373 C 227.406 323.214,227.374 323.383,227.375 323.750 M323.545 324.000 C 323.545 324.412,323.578 324.581,323.618 324.375 C 323.657 324.169,323.657 323.831,323.618 323.625 C 323.578 323.419,323.545 323.587,323.545 324.000 M181.542 325.115 C 181.702 325.157,181.965 325.157,182.125 325.115 C 182.285 325.073,182.154 325.039,181.833 325.039 C 181.512 325.039,181.381 325.073,181.542 325.115 M196.460 325.118 C 196.668 325.158,196.968 325.156,197.127 325.115 C 197.286 325.073,197.117 325.040,196.750 325.042 C 196.383 325.044,196.253 325.078,196.460 325.118 M184.542 325.282 C 184.702 325.323,184.965 325.323,185.125 325.282 C 185.285 325.240,185.154 325.205,184.833 325.205 C 184.512 325.205,184.381 325.240,184.542 325.282 M193.208 325.282 C 193.369 325.323,193.631 325.323,193.792 325.282 C 193.952 325.240,193.821 325.205,193.500 325.205 C 193.179 325.205,193.048 325.240,193.208 325.282 M323.552 327.083 C 323.553 327.633,323.584 327.838,323.621 327.539 C 323.658 327.239,323.657 326.789,323.619 326.539 C 323.581 326.288,323.551 326.533,323.552 327.083 M323.388 332.583 C 323.389 333.225,323.419 333.467,323.455 333.121 C 323.491 332.775,323.490 332.250,323.454 331.955 C 323.417 331.659,323.387 331.942,323.388 332.583 M323.214 338.083 C 323.216 338.542,323.248 338.709,323.286 338.456 C 323.325 338.203,323.324 337.828,323.284 337.623 C 323.244 337.418,323.213 337.625,323.214 338.083 M182.042 337.782 C 182.202 337.823,182.465 337.823,182.625 337.782 C 182.785 337.740,182.654 337.705,182.333 337.705 C 182.012 337.705,181.881 337.740,182.042 337.782 M185.292 337.951 C 185.498 337.991,185.835 337.991,186.042 337.951 C 186.248 337.911,186.079 337.879,185.667 337.879 C 185.254 337.879,185.085 337.911,185.292 337.951 M192.292 337.951 C 192.498 337.991,192.835 337.991,193.042 337.951 C 193.248 337.911,193.079 337.879,192.667 337.879 C 192.254 337.879,192.085 337.911,192.292 337.951 M300.039 352.167 C 300.039 352.488,300.073 352.619,300.115 352.458 C 300.157 352.298,300.157 352.035,300.115 351.875 C 300.073 351.715,300.039 351.846,300.039 352.167 M300.042 357.583 C 300.044 357.950,300.078 358.080,300.118 357.873 C 300.158 357.666,300.156 357.366,300.115 357.206 C 300.073 357.047,300.040 357.217,300.042 357.583 M191.794 374.951 C 192.001 374.991,192.301 374.990,192.460 374.948 C 192.620 374.906,192.450 374.874,192.083 374.875 C 191.717 374.877,191.586 374.911,191.794 374.951 M207.794 374.951 C 208.001 374.991,208.301 374.990,208.460 374.948 C 208.620 374.906,208.450 374.874,208.083 374.875 C 207.717 374.877,207.586 374.911,207.794 374.951 M198.199 375.124 C 199.179 375.154,200.829 375.154,201.866 375.125 C 202.902 375.095,202.100 375.071,200.083 375.071 C 198.067 375.071,197.219 375.095,198.199 375.124 " stroke="none" fill="#acb8a4" fill-rule="evenodd"></path><path id="path4" d="M197.961 25.121 C 198.261 25.158,198.711 25.157,198.961 25.119 C 199.212 25.081,198.967 25.051,198.417 25.052 C 197.867 25.053,197.662 25.084,197.961 25.121 M201.295 25.121 C 201.594 25.158,202.044 25.157,202.295 25.119 C 202.545 25.081,202.300 25.051,201.750 25.052 C 201.200 25.053,200.995 25.084,201.295 25.121 M25.052 198.417 C 25.053 198.967,25.084 199.172,25.121 198.872 C 25.158 198.572,25.157 198.122,25.119 197.872 C 25.081 197.622,25.051 197.867,25.052 198.417 M25.053 201.667 C 25.053 202.262,25.084 202.506,25.121 202.208 C 25.158 201.910,25.158 201.423,25.121 201.125 C 25.084 200.827,25.053 201.071,25.053 201.667 M323.539 325.167 C 323.539 325.487,323.573 325.619,323.615 325.458 C 323.657 325.298,323.657 325.035,323.615 324.875 C 323.573 324.715,323.539 324.846,323.539 325.167 " stroke="none" fill="#acb49c" fill-rule="evenodd"></path></g></svg>