<?xml version="1.0" standalone="no"?>
<!DOCTYPE svg PUBLIC "-//W3C//DTD SVG 20010904//EN"
 "http://www.w3.org/TR/2001/REC-SVG-20010904/DTD/svg10.dtd">
<svg version="1.0" xmlns="http://www.w3.org/2000/svg"
 width="700.000000pt" height="700.000000pt" viewBox="0 0 700.000000 700.000000"
 preserveAspectRatio="xMidYMid meet">
<metadata>
Created by potrace 1.14, written by Peter Selinger 2001-2017
</metadata>
<g transform="translate(0.000000,700.000000) scale(0.100000,-0.100000)"
fill="#000000" stroke="none">
<path d="M3387 6783 c-1 0 -49 -4 -107 -8 -58 -3 -116 -8 -130 -10 -14 -2 -47
-6 -75 -10 -269 -34 -556 -110 -820 -217 -97 -40 -350 -164 -410 -203 -16 -10
-50 -31 -75 -46 -25 -16 -51 -33 -57 -39 -7 -6 -13 -8 -13 -5 0 16 -273 -190
-368 -278 -440 -407 -734 -839 -921 -1357 -33 -90 -94 -290 -106 -347 -2 -10
-10 -49 -19 -88 -8 -38 -17 -88 -20 -110 -4 -23 -8 -50 -10 -62 -40 -204 -50
-640 -21 -863 2 -19 7 -55 10 -80 82 -657 403 -1333 859 -1809 112 -116 243
-239 316 -296 28 -22 64 -50 78 -63 15 -13 97 -70 182 -126 371 -248 756 -406
1207 -495 56 -11 124 -23 151 -26 27 -3 57 -7 68 -9 100 -19 472 -26 656 -13
348 24 756 129 1083 276 144 66 361 183 408 221 7 5 53 37 102 70 150 99 305
228 299 248 -5 14 -4 15 5 2 11 -16 15 -13 182 154 79 79 183 193 207 227 9
13 18 26 21 29 16 14 84 105 142 190 222 323 386 689 480 1068 33 137 33 135
44 202 4 25 9 54 11 64 2 11 6 40 9 65 3 25 7 57 10 70 25 129 25 653 -1 784
-2 11 -8 57 -14 101 -6 45 -15 99 -20 121 -5 22 -11 54 -14 71 -22 126 -105
393 -174 559 -135 329 -370 706 -582 935 -229 248 -418 411 -665 573 -315 206
-736 384 -1065 451 -14 3 -36 7 -50 10 -23 5 -97 19 -167 31 -16 2 -53 7 -83
11 -30 3 -64 8 -75 10 -32 7 -463 23 -468 17z m103 -219 c0 -8 -19 -13 -24 -6
-3 5 1 9 9 9 8 0 15 -2 15 -3z m77 -899 c0 -8 -4 -12 -9 -9 -5 3 -6 10 -3 15
9 13 12 11 12 -6z m973 -119 c0 -2 -8 -10 -17 -17 -16 -13 -17 -12 -4 4 13 16
21 21 21 13z m-2429 -1713 c13 -16 12 -17 -3 -4 -10 7 -18 15 -18 17 0 8 8 3
21 -13z m100 -90 c13 -16 12 -17 -3 -4 -10 7 -18 15 -18 17 0 8 8 3 21 -13z
m84 -73 c10 -11 16 -20 13 -20 -3 0 -13 9 -23 20 -10 11 -16 20 -13 20 3 0 13
-9 23 -20z m50 -40 c10 -11 16 -20 13 -20 -3 0 -13 9 -23 20 -10 11 -16 20
-13 20 3 0 13 -9 23 -20z m86 -67 c13 -16 12 -17 -3 -4 -10 7 -18 15 -18 17 0
8 8 3 21 -13z m294 -211 c-3 -3 -11 0 -18 7 -9 10 -8 11 6 5 10 -3 15 -9 12
-12z m1916 -239 c13 -16 12 -17 -3 -4 -17 13 -22 21 -14 21 2 0 10 -8 17 -17z
m-210 -670 c13 -16 12 -17 -3 -4 -17 13 -22 21 -14 21 2 0 10 -8 17 -17z
m-2336 -193 c-3 -5 -12 -10 -18 -10 -7 0 -6 4 3 10 19 12 23 12 15 0z m2306
-97 c13 -16 12 -17 -3 -4 -17 13 -22 21 -14 21 2 0 10 -8 17 -17z"/>
</g>
</svg>
